<svg xmlns="http://www.w3.org/2000/svg" width="3000" height="3000" viewBox="0 0 150 150" role="img" aria-label="Ranch logo">
  <title>Ranch logo</title>
  <circle cx="75" cy="75" r="75" fill="#000000"/>
  <path d="M20.867,64.324 L9.015,64.324 L9.015,67.026 L11.821,67.488 L11.821,83.527 L9.015,83.989 L9.015,86.676 L19.939,86.676 L19.939,83.989 L17.115,83.527 L17.115,77.632 L21.447,77.632 C23.929,77.696 25.361,78.998 25.361,81.164 L25.361,82.436 C25.361,84.942 26.590,86.676 30.052,86.676 L32.789,86.676 L32.789,83.974 L32.139,83.895 C31.066,83.787 30.649,83.252 30.649,82.269 L30.649,81.135 C30.649,78.447 29.385,76.605 26.265,75.824 C29.020,74.793 30.469,73.137 30.469,70.877 C30.469,66.780 26.863,64.324 20.867,64.324 Z M17.115,74.179 L17.115,67.778 L20.867,67.778 C23.708,67.778 25.198,69.070 25.198,71.079 C25.198,73.088 23.731,74.179 20.774,74.179 L17.115,74.179 Z M34.256,83.989 L34.256,86.676 L43.243,86.676 L43.243,83.989 L41.417,83.714 L42.577,80.643 L51.854,80.643 L53.014,83.714 L51.182,83.989 L51.182,86.676 L60.169,86.676 L60.169,83.989 L58.285,83.758 L49.946,64.324 L44.531,64.324 L36.140,83.758 L34.256,83.989 Z M43.823,77.342 L46.885,69.728 L47.157,69.006 L47.268,69.006 L47.523,69.684 L50.602,77.342 L43.823,77.342 Z M89.255,64.324 L78.324,64.324 L78.324,67.026 L81.693,67.488 L81.693,79.813 L81.589,79.828 L70.096,64.324 L61.926,64.324 L61.926,67.026 L64.733,67.488 L64.733,83.527 L61.926,83.989 L61.926,86.676 L72.851,86.676 L72.851,83.989 L69.464,83.527 L69.464,71.339 L69.574,71.324 L81.316,86.676 L86.425,86.676 L86.425,67.488 L89.255,67.026 L89.255,64.324 Z M112.608,72.017 L112.608,66.613 C110.254,64.845 107.082,64.000 103.278,64.000 C95.885,64.000 90.922,68.637 90.922,75.132 L90.922,75.883 C90.922,82.702 96.100,87.000 103.551,87.000 C107.627,87.000 110.782,86.106 112.608,84.956 L112.608,79.612 L108.677,79.612 L108.132,82.761 C106.989,83.237 105.725,83.561 103.638,83.561 C99.329,83.561 96.210,80.579 96.210,75.883 L96.210,75.102 C96.210,70.401 99.202,67.453 103.406,67.453 C105.563,67.453 106.937,67.900 108.132,68.623 L108.677,72.017 L112.608,72.017 Z M115.037,67.026 L117.843,67.488 L117.843,83.527 L115.037,83.989 L115.037,86.676 L125.961,86.676 L125.961,83.989 L123.137,83.527 L123.137,77.386 L133.899,77.386 L133.899,83.527 L131.076,83.989 L131.076,86.676 L142.000,86.676 L142.000,83.989 L139.176,83.527 L139.176,67.488 L142.000,67.026 L142.000,64.324 L131.076,64.324 L131.076,67.026 L133.899,67.488 L133.899,73.933 L123.137,73.933 L123.137,67.488 L125.961,67.026 L125.961,64.324 L115.037,64.324 L115.037,67.026 Z" fill="#ffffff" stroke="#ffffff" stroke-width="0.75" stroke-linejoin="round" stroke-linecap="round" fill-rule="nonzero"/>
</svg>
